<mxfile host="app.diagrams.net" agent="Mozilla/5.0 (Macintosh; Intel Mac OS X 10_15_7) AppleWebKit/537.36 (KHTML, like Gecko) Chrome/138.0.0.0 Safari/537.36" version="28.0.7" pages="2">
  <diagram name="第 1 页" id="dq5qYhCKUzZrULwnAqDB">
    <mxGraphModel dx="1426" dy="690" grid="1" gridSize="10" guides="1" tooltips="1" connect="1" arrows="1" fold="1" page="1" pageScale="1" pageWidth="827" pageHeight="1169" math="0" shadow="0">
      <root>
        <mxCell id="0" />
        <mxCell id="1" parent="0" />
        <mxCell id="imGmN9qaRvJFJPzndBke-1" value="BasePromptTemplate" style="swimlane;fontStyle=1;align=center;verticalAlign=top;childLayout=stackLayout;horizontal=1;startSize=26;horizontalStack=0;resizeParent=1;resizeParentMax=0;resizeLast=0;collapsible=1;marginBottom=0;whiteSpace=wrap;html=1;fontFamily=Comic Sans MS;fontSize=12;" vertex="1" collapsed="1" parent="1">
          <mxGeometry x="220" y="120" width="180" height="30" as="geometry">
            <mxRectangle x="220" y="120" width="160" height="86" as="alternateBounds" />
          </mxGeometry>
        </mxCell>
        <mxCell id="imGmN9qaRvJFJPzndBke-2" value="+&amp;nbsp;" style="text;strokeColor=none;fillColor=none;align=left;verticalAlign=top;spacingLeft=4;spacingRight=4;overflow=hidden;rotatable=0;points=[[0,0.5],[1,0.5]];portConstraint=eastwest;whiteSpace=wrap;html=1;fontFamily=Comic Sans MS;" vertex="1" parent="imGmN9qaRvJFJPzndBke-1">
          <mxGeometry y="26" width="160" height="26" as="geometry" />
        </mxCell>
        <mxCell id="imGmN9qaRvJFJPzndBke-3" value="" style="line;strokeWidth=1;fillColor=none;align=left;verticalAlign=middle;spacingTop=-1;spacingLeft=3;spacingRight=3;rotatable=0;labelPosition=right;points=[];portConstraint=eastwest;strokeColor=inherit;fontFamily=Comic Sans MS;" vertex="1" parent="imGmN9qaRvJFJPzndBke-1">
          <mxGeometry y="52" width="160" height="8" as="geometry" />
        </mxCell>
        <mxCell id="imGmN9qaRvJFJPzndBke-4" value="+&amp;nbsp;" style="text;strokeColor=none;fillColor=none;align=left;verticalAlign=top;spacingLeft=4;spacingRight=4;overflow=hidden;rotatable=0;points=[[0,0.5],[1,0.5]];portConstraint=eastwest;whiteSpace=wrap;html=1;fontFamily=Comic Sans MS;" vertex="1" parent="imGmN9qaRvJFJPzndBke-1">
          <mxGeometry y="60" width="160" height="26" as="geometry" />
        </mxCell>
        <mxCell id="imGmN9qaRvJFJPzndBke-25" style="rounded=0;orthogonalLoop=1;jettySize=auto;html=1;exitX=0.5;exitY=0;exitDx=0;exitDy=0;entryX=0.5;entryY=1;entryDx=0;entryDy=0;endArrow=block;endFill=0;" edge="1" parent="1" source="imGmN9qaRvJFJPzndBke-5" target="imGmN9qaRvJFJPzndBke-1">
          <mxGeometry relative="1" as="geometry" />
        </mxCell>
        <mxCell id="imGmN9qaRvJFJPzndBke-5" value="StringPromptTemplate" style="swimlane;fontStyle=1;align=center;verticalAlign=top;childLayout=stackLayout;horizontal=1;startSize=26;horizontalStack=0;resizeParent=1;resizeParentMax=0;resizeLast=0;collapsible=1;marginBottom=0;whiteSpace=wrap;html=1;fontFamily=Comic Sans MS;fontSize=12;" vertex="1" collapsed="1" parent="1">
          <mxGeometry x="110" y="200" width="180" height="30" as="geometry">
            <mxRectangle x="150" y="120" width="160" height="86" as="alternateBounds" />
          </mxGeometry>
        </mxCell>
        <mxCell id="imGmN9qaRvJFJPzndBke-6" value="+&amp;nbsp;" style="text;strokeColor=none;fillColor=none;align=left;verticalAlign=top;spacingLeft=4;spacingRight=4;overflow=hidden;rotatable=0;points=[[0,0.5],[1,0.5]];portConstraint=eastwest;whiteSpace=wrap;html=1;fontFamily=Comic Sans MS;" vertex="1" parent="imGmN9qaRvJFJPzndBke-5">
          <mxGeometry y="26" width="160" height="26" as="geometry" />
        </mxCell>
        <mxCell id="imGmN9qaRvJFJPzndBke-7" value="" style="line;strokeWidth=1;fillColor=none;align=left;verticalAlign=middle;spacingTop=-1;spacingLeft=3;spacingRight=3;rotatable=0;labelPosition=right;points=[];portConstraint=eastwest;strokeColor=inherit;fontFamily=Comic Sans MS;" vertex="1" parent="imGmN9qaRvJFJPzndBke-5">
          <mxGeometry y="52" width="160" height="8" as="geometry" />
        </mxCell>
        <mxCell id="imGmN9qaRvJFJPzndBke-8" value="+&amp;nbsp;" style="text;strokeColor=none;fillColor=none;align=left;verticalAlign=top;spacingLeft=4;spacingRight=4;overflow=hidden;rotatable=0;points=[[0,0.5],[1,0.5]];portConstraint=eastwest;whiteSpace=wrap;html=1;fontFamily=Comic Sans MS;" vertex="1" parent="imGmN9qaRvJFJPzndBke-5">
          <mxGeometry y="60" width="160" height="26" as="geometry" />
        </mxCell>
        <mxCell id="imGmN9qaRvJFJPzndBke-21" style="rounded=0;orthogonalLoop=1;jettySize=auto;html=1;exitX=0.5;exitY=0;exitDx=0;exitDy=0;entryX=0.5;entryY=1;entryDx=0;entryDy=0;endArrow=block;endFill=0;" edge="1" parent="1" source="imGmN9qaRvJFJPzndBke-9" target="imGmN9qaRvJFJPzndBke-5">
          <mxGeometry relative="1" as="geometry" />
        </mxCell>
        <mxCell id="imGmN9qaRvJFJPzndBke-9" value="PromptTemplate" style="swimlane;fontStyle=1;align=center;verticalAlign=top;childLayout=stackLayout;horizontal=1;startSize=26;horizontalStack=0;resizeParent=1;resizeParentMax=0;resizeLast=0;collapsible=1;marginBottom=0;whiteSpace=wrap;html=1;fontFamily=Comic Sans MS;fontSize=12;" vertex="1" collapsed="1" parent="1">
          <mxGeometry x="110" y="300" width="180" height="30" as="geometry">
            <mxRectangle x="150" y="120" width="160" height="86" as="alternateBounds" />
          </mxGeometry>
        </mxCell>
        <mxCell id="imGmN9qaRvJFJPzndBke-10" value="+&amp;nbsp;" style="text;strokeColor=none;fillColor=none;align=left;verticalAlign=top;spacingLeft=4;spacingRight=4;overflow=hidden;rotatable=0;points=[[0,0.5],[1,0.5]];portConstraint=eastwest;whiteSpace=wrap;html=1;fontFamily=Comic Sans MS;" vertex="1" parent="imGmN9qaRvJFJPzndBke-9">
          <mxGeometry y="26" width="160" height="26" as="geometry" />
        </mxCell>
        <mxCell id="imGmN9qaRvJFJPzndBke-11" value="" style="line;strokeWidth=1;fillColor=none;align=left;verticalAlign=middle;spacingTop=-1;spacingLeft=3;spacingRight=3;rotatable=0;labelPosition=right;points=[];portConstraint=eastwest;strokeColor=inherit;fontFamily=Comic Sans MS;" vertex="1" parent="imGmN9qaRvJFJPzndBke-9">
          <mxGeometry y="52" width="160" height="8" as="geometry" />
        </mxCell>
        <mxCell id="imGmN9qaRvJFJPzndBke-12" value="+&amp;nbsp;" style="text;strokeColor=none;fillColor=none;align=left;verticalAlign=top;spacingLeft=4;spacingRight=4;overflow=hidden;rotatable=0;points=[[0,0.5],[1,0.5]];portConstraint=eastwest;whiteSpace=wrap;html=1;fontFamily=Comic Sans MS;" vertex="1" parent="imGmN9qaRvJFJPzndBke-9">
          <mxGeometry y="60" width="160" height="26" as="geometry" />
        </mxCell>
        <mxCell id="imGmN9qaRvJFJPzndBke-26" style="rounded=0;orthogonalLoop=1;jettySize=auto;html=1;exitX=0.5;exitY=0;exitDx=0;exitDy=0;entryX=0.5;entryY=1;entryDx=0;entryDy=0;endArrow=block;endFill=0;" edge="1" parent="1" source="imGmN9qaRvJFJPzndBke-13" target="imGmN9qaRvJFJPzndBke-1">
          <mxGeometry relative="1" as="geometry" />
        </mxCell>
        <mxCell id="imGmN9qaRvJFJPzndBke-13" value="BaseChatPromptTemplate" style="swimlane;fontStyle=1;align=center;verticalAlign=top;childLayout=stackLayout;horizontal=1;startSize=26;horizontalStack=0;resizeParent=1;resizeParentMax=0;resizeLast=0;collapsible=1;marginBottom=0;whiteSpace=wrap;html=1;fontFamily=Comic Sans MS;fontSize=12;" vertex="1" collapsed="1" parent="1">
          <mxGeometry x="334" y="200" width="180" height="30" as="geometry">
            <mxRectangle x="150" y="120" width="160" height="86" as="alternateBounds" />
          </mxGeometry>
        </mxCell>
        <mxCell id="imGmN9qaRvJFJPzndBke-14" value="+&amp;nbsp;" style="text;strokeColor=none;fillColor=none;align=left;verticalAlign=top;spacingLeft=4;spacingRight=4;overflow=hidden;rotatable=0;points=[[0,0.5],[1,0.5]];portConstraint=eastwest;whiteSpace=wrap;html=1;fontFamily=Comic Sans MS;" vertex="1" parent="imGmN9qaRvJFJPzndBke-13">
          <mxGeometry y="26" width="160" height="26" as="geometry" />
        </mxCell>
        <mxCell id="imGmN9qaRvJFJPzndBke-15" value="" style="line;strokeWidth=1;fillColor=none;align=left;verticalAlign=middle;spacingTop=-1;spacingLeft=3;spacingRight=3;rotatable=0;labelPosition=right;points=[];portConstraint=eastwest;strokeColor=inherit;fontFamily=Comic Sans MS;" vertex="1" parent="imGmN9qaRvJFJPzndBke-13">
          <mxGeometry y="52" width="160" height="8" as="geometry" />
        </mxCell>
        <mxCell id="imGmN9qaRvJFJPzndBke-16" value="+&amp;nbsp;" style="text;strokeColor=none;fillColor=none;align=left;verticalAlign=top;spacingLeft=4;spacingRight=4;overflow=hidden;rotatable=0;points=[[0,0.5],[1,0.5]];portConstraint=eastwest;whiteSpace=wrap;html=1;fontFamily=Comic Sans MS;" vertex="1" parent="imGmN9qaRvJFJPzndBke-13">
          <mxGeometry y="60" width="160" height="26" as="geometry" />
        </mxCell>
        <mxCell id="imGmN9qaRvJFJPzndBke-24" style="rounded=0;orthogonalLoop=1;jettySize=auto;html=1;exitX=0.5;exitY=0;exitDx=0;exitDy=0;entryX=0.5;entryY=1;entryDx=0;entryDy=0;endArrow=block;endFill=0;" edge="1" parent="1" source="imGmN9qaRvJFJPzndBke-17" target="imGmN9qaRvJFJPzndBke-13">
          <mxGeometry relative="1" as="geometry" />
        </mxCell>
        <mxCell id="imGmN9qaRvJFJPzndBke-17" value="ChatPromptTemplate" style="swimlane;fontStyle=1;align=center;verticalAlign=top;childLayout=stackLayout;horizontal=1;startSize=26;horizontalStack=0;resizeParent=1;resizeParentMax=0;resizeLast=0;collapsible=1;marginBottom=0;whiteSpace=wrap;html=1;fontFamily=Comic Sans MS;fontSize=12;" vertex="1" collapsed="1" parent="1">
          <mxGeometry x="334" y="300" width="180" height="30" as="geometry">
            <mxRectangle x="150" y="120" width="160" height="86" as="alternateBounds" />
          </mxGeometry>
        </mxCell>
        <mxCell id="imGmN9qaRvJFJPzndBke-18" value="+&amp;nbsp;" style="text;strokeColor=none;fillColor=none;align=left;verticalAlign=top;spacingLeft=4;spacingRight=4;overflow=hidden;rotatable=0;points=[[0,0.5],[1,0.5]];portConstraint=eastwest;whiteSpace=wrap;html=1;fontFamily=Comic Sans MS;" vertex="1" parent="imGmN9qaRvJFJPzndBke-17">
          <mxGeometry y="26" width="160" height="26" as="geometry" />
        </mxCell>
        <mxCell id="imGmN9qaRvJFJPzndBke-19" value="" style="line;strokeWidth=1;fillColor=none;align=left;verticalAlign=middle;spacingTop=-1;spacingLeft=3;spacingRight=3;rotatable=0;labelPosition=right;points=[];portConstraint=eastwest;strokeColor=inherit;fontFamily=Comic Sans MS;" vertex="1" parent="imGmN9qaRvJFJPzndBke-17">
          <mxGeometry y="52" width="160" height="8" as="geometry" />
        </mxCell>
        <mxCell id="imGmN9qaRvJFJPzndBke-20" value="+&amp;nbsp;" style="text;strokeColor=none;fillColor=none;align=left;verticalAlign=top;spacingLeft=4;spacingRight=4;overflow=hidden;rotatable=0;points=[[0,0.5],[1,0.5]];portConstraint=eastwest;whiteSpace=wrap;html=1;fontFamily=Comic Sans MS;" vertex="1" parent="imGmN9qaRvJFJPzndBke-17">
          <mxGeometry y="60" width="160" height="26" as="geometry" />
        </mxCell>
      </root>
    </mxGraphModel>
  </diagram>
  <diagram id="zLZMyuIy-fABm0-wFwqz" name="第 2 页">
    <mxGraphModel dx="1426" dy="690" grid="1" gridSize="10" guides="1" tooltips="1" connect="1" arrows="1" fold="1" page="1" pageScale="1" pageWidth="827" pageHeight="1169" math="0" shadow="0">
      <root>
        <mxCell id="0" />
        <mxCell id="1" parent="0" />
        <mxCell id="TX4eqC17GfZPnrVQzOVX-1" value="BaseExampleSelector" style="swimlane;fontStyle=1;align=center;verticalAlign=top;childLayout=stackLayout;horizontal=1;startSize=26;horizontalStack=0;resizeParent=1;resizeParentMax=0;resizeLast=0;collapsible=1;marginBottom=0;whiteSpace=wrap;html=1;fontFamily=Comic Sans MS;fontSize=10;" vertex="1" parent="1">
          <mxGeometry x="310" y="60" width="160" height="66" as="geometry">
            <mxRectangle x="220" y="60" width="180" height="30" as="alternateBounds" />
          </mxGeometry>
        </mxCell>
        <mxCell id="TX4eqC17GfZPnrVQzOVX-3" value="" style="line;strokeWidth=1;fillColor=none;align=left;verticalAlign=middle;spacingTop=-1;spacingLeft=3;spacingRight=3;rotatable=0;labelPosition=right;points=[];portConstraint=eastwest;strokeColor=inherit;fontFamily=Comic Sans MS;" vertex="1" parent="TX4eqC17GfZPnrVQzOVX-1">
          <mxGeometry y="26" width="160" height="8" as="geometry" />
        </mxCell>
        <mxCell id="TX4eqC17GfZPnrVQzOVX-4" value="+ add_example()&lt;div&gt;&amp;nbsp;&lt;/div&gt;" style="text;strokeColor=none;fillColor=none;align=left;verticalAlign=middle;spacingLeft=4;spacingRight=4;overflow=hidden;rotatable=0;points=[[0,0.5],[1,0.5]];portConstraint=eastwest;whiteSpace=wrap;html=1;fontFamily=Comic Sans MS;fontSize=8;" vertex="1" parent="TX4eqC17GfZPnrVQzOVX-1">
          <mxGeometry y="34" width="160" height="16" as="geometry" />
        </mxCell>
        <mxCell id="TX4eqC17GfZPnrVQzOVX-5" value="+ select_examples()" style="text;strokeColor=none;fillColor=none;align=left;verticalAlign=middle;spacingLeft=4;spacingRight=4;overflow=hidden;rotatable=0;points=[[0,0.5],[1,0.5]];portConstraint=eastwest;whiteSpace=wrap;html=1;fontFamily=Comic Sans MS;fontSize=8;" vertex="1" parent="TX4eqC17GfZPnrVQzOVX-1">
          <mxGeometry y="50" width="160" height="16" as="geometry" />
        </mxCell>
      </root>
    </mxGraphModel>
  </diagram>
</mxfile>
